<?xml version="1.0" encoding="UTF-8" standalone="no"?>
<svg
   data-name="Layer 1"
   viewBox="0 0 997.66808 705.18709"
   version="1.1"
   id="svg218"
   sodipodi:docname="javascript.svg"
   inkscape:version="1.1.1 (3bf5ae0d25, 2021-09-20)"
   width="997.66809"
   height="705.18707"
   xmlns:inkscape="http://www.inkscape.org/namespaces/inkscape"
   xmlns:sodipodi="http://sodipodi.sourceforge.net/DTD/sodipodi-0.dtd"
   xmlns:xlink="http://www.w3.org/1999/xlink"
   xmlns="http://www.w3.org/2000/svg"
   xmlns:svg="http://www.w3.org/2000/svg">
  <sodipodi:namedview
     id="namedview220"
     pagecolor="#ffffff"
     bordercolor="#666666"
     borderopacity="1.0"
     inkscape:pageshadow="2"
     inkscape:pageopacity="0.0"
     inkscape:pagecheckerboard="0"
     showgrid="false"
     inkscape:zoom="0.35623271"
     inkscape:cx="-77.196729"
     inkscape:cy="312.99765"
     inkscape:window-width="1366"
     inkscape:window-height="705"
     inkscape:window-x="-8"
     inkscape:window-y="-8"
     inkscape:window-maximized="1"
     inkscape:current-layer="svg218" />
  <defs
     id="defs10">
    <linearGradient
       id="a"
       x1="889.13"
       y1="701.84998"
       x2="889.13"
       y2="363.29999"
       gradientUnits="userSpaceOnUse">
      <stop
         offset="0"
         stop-color="gray"
         stop-opacity=".25"
         id="stop2" />
      <stop
         offset=".54"
         stop-color="gray"
         stop-opacity=".12"
         id="stop4" />
      <stop
         offset="1"
         stop-color="gray"
         stop-opacity=".1"
         id="stop6" />
    </linearGradient>
    <linearGradient
       id="b"
       x1="376.53"
       y1="777.06"
       x2="376.53"
       y2="381.85001"
       xlink:href="#a" />
  </defs>
  <path
     d="M 244.86762,281.93782 H 668.14907 V 705.18709 H 244.86762 Z"
     fill="#f7df1e"
     id="path96"
     style="stroke-width:1.6084" />
  <path
     d="m 356.18467,635.64007 32.39308,-19.60634 c 6.25666,11.08184 11.9343,20.4588 25.57349,20.4588 13.07625,0 21.31124,-5.11471 21.31124,-24.99447 V 476.24808 h 39.77563 v 135.79684 c 0,41.191 -24.12594,59.94489 -59.38198,59.94489 -31.81405,0 -50.27844,-16.48606 -59.65538,-36.36582 m 140.63811,-4.26225 32.37701,-18.75389 c 8.5245,13.9287 19.60634,24.12593 39.21268,24.12593 16.48606,0 26.98888,-8.23498 26.98888,-19.60634 0,-13.6392 -10.79234,-18.46438 -28.95112,-26.42594 l -9.93988,-4.26225 c -28.69378,-12.20772 -47.73718,-27.55182 -47.73718,-59.9449 0,-29.83573 22.72662,-52.56236 58.24,-52.56236 25.28398,0 43.42667,8.81401 56.5351,31.81406 l -30.96161,19.89586 c -6.81961,-12.22381 -14.20213,-17.049 -25.57349,-17.049 -11.64478,0 -19.0434,7.38253 -19.0434,17.049 0,11.93428 7.38253,16.75948 24.43153,24.12593 l 9.93988,4.26225 c 33.7763,14.47556 52.85187,29.2567 52.85187,62.50224 0,35.80288 -28.13083,55.40923 -65.94421,55.40923 -36.9931,0 -60.79735,-17.69235 -72.37779,-40.62807"
     id="path98"
     style="stroke-width:1.6084" />
  <path
     d="m 233.34926,64.7301 -21.2605,238.13425 -95.5606,26.50587 L 21.23259,302.86435 0,64.7301 Z"
     fill="#e44d26"
     id="path144"
     style="stroke-width:1.39505" />
  <path
     d="m 116.66766,309.11416 77.2157,-21.4 18.1356,-203.50922 h -95.3513 z"
     fill="#f16529"
     id="path146"
     style="stroke-width:1.39505" />
  <path
     d="m 75.3464,142.62944 h 41.32126 v -29.21225 h -73.2399 l 0.69752,7.84015 7.18449,80.49412 h 65.37179 V 172.53921 H 78.02489 Z m 6.64046,73.72815 h -29.296 l 4.08748,45.86909 59.76372,16.65684 h 0.1395 v -30.48174 h -0.1255 L 84.023558,239.613 Z"
     fill="#ebebeb"
     id="path148"
     style="stroke-width:1.39505" />
  <path
     d="M 21.72085,0 H 36.56414 V 14.66192 H 50.13793 V 0 H 64.98121 V 44.41824 H 50.13793 V 29.54706 H 36.56414 V 44.41824 H 21.72085 Z M 84.497858,14.73168 H 71.42632 V 0 h 40.98644 V 14.73168 H 99.341158 v 29.68656 h -14.8293 V 14.73168 Z M 118.92766,0 h 15.485 l 9.5281,15.61055 L 153.45496,0 h 15.485 v 44.41824 h -14.7874 V 22.40443 l -10.2118,15.79191 h -0.2511 l -10.2257,-15.79191 v 22.01381 h -14.5363 z m 57.3921,0 h 14.8433 v 29.72841 h 20.9257 v 14.67588 h -35.7271 V 0 Z"
     id="path150"
     style="stroke-width:1.39505" />
  <path
     d="m 116.56996,201.75146 h 35.9643 l -3.39,37.88944 -32.5743,8.78878 v 30.45384 l 59.8893,-16.60104 0.4325,-4.93846 6.8636,-76.90885 0.7115,-7.84016 h -67.8969 v 29.21225 z m 0,-59.19177 v 0.0697 h 70.5614 l 0.5859,-6.57067 1.3951,-14.81538 0.6975,-7.84015 h -73.2399 v 29.1425 z"
     fill="#ffffff"
     id="path152"
     style="stroke-width:1.39505" />
  <path
     d="M 855.8338,456.57243 740.1287,424.48639 714.3483,135.29347 h 283.3198 l -25.8084,289.15107 z"
     fill="#264de4"
     id="path160"
     style="stroke-width:1.39505" />
  <path
     d="M 949.7622,406.04389 971.8179,158.95344 H 856.0291 v 273.02434 z"
     fill="#2965f1"
     id="path162"
     style="stroke-width:1.39505" />
  <path
     d="m 773.5261,266.16268 3.1807,35.46206 h 79.3781 v -35.46206 z m -6.3893,-71.78903 3.2226,35.46205 h 85.7116 v -35.46205 h -89.0039 z m 88.9342,163.90388 h -0.1535 l -39.5077,-10.6721 -2.525,-28.29152 h -35.6713 l 4.9663,55.69022 72.654,20.2142 h 0.1674 z"
     fill="#ebebeb"
     id="path164"
     style="stroke-width:1.39505" />
  <path
     d="m 781.0315,56.66871 h 42.9534 V 74.6369 h -24.9992 v 17.96819 h 24.9992 v 17.96818 h -42.9534 z m 51.6166,0 h 42.9535 v 15.62451 h -25.055 v 3.12491 h 24.9992 V 111.3545 H 832.5784 V 94.94876 h 24.9992 v -3.1249 H 832.5784 V 56.66871 Z m 51.6167,0 h 42.9535 v 15.62451 h -25.1248 v 3.12491 h 24.9992 V 111.3545 H 884.1253 V 94.94876 h 24.9992 v -3.1249 H 884.1253 V 56.66871 Z"
     id="path166"
     style="stroke-width:1.39505" />
  <path
     d="m 938.3368,266.16268 6.4032,-71.78903 h -88.9062 v 35.46205 h 49.9845 l -3.2226,36.27118 h -46.7619 v 35.46206 h 43.6789 l -4.1852,46.03649 -39.4937,10.7 v 36.89895 l 72.7098,-20.1584 0.5301,-5.9987 8.3703,-93.38434 0.8649,-9.52816 z"
     fill="#ffffff"
     id="path168"
     style="stroke-width:1.39505" />
</svg>
