<?xml version="1.0" encoding="UTF-8" standalone="no"?>
<svg
   viewBox="0 0 31.601999 7.7470005"
   version="1.1"
   id="svg8"
   sodipodi:docname="logo.svg"
   width="31.601999"
   height="7.7470002"
   inkscape:version="1.1.1 (3bf5ae0d25, 2021-09-20)"
   xmlns:inkscape="http://www.inkscape.org/namespaces/inkscape"
   xmlns:sodipodi="http://sodipodi.sourceforge.net/DTD/sodipodi-0.dtd"
   xmlns="http://www.w3.org/2000/svg"
   xmlns:svg="http://www.w3.org/2000/svg">
  <defs
     id="defs12" />
  <sodipodi:namedview
     id="namedview10"
     pagecolor="#ffffff"
     bordercolor="#666666"
     borderopacity="1.0"
     inkscape:pageshadow="2"
     inkscape:pageopacity="0.0"
     inkscape:pagecheckerboard="0"
     showgrid="false"
     inkscape:zoom="17.242859"
     inkscape:cx="24.560892"
     inkscape:cy="2.9867437"
     inkscape:window-width="1366"
     inkscape:window-height="705"
     inkscape:window-x="-8"
     inkscape:window-y="-8"
     inkscape:window-maximized="1"
     inkscape:current-layer="svg8" />
  <g
     style="line-height:0.8;fill:#1a1a1a"
     id="g4"
     transform="translate(0,-0.188)">
    <path
       class="logo"
       d="M 0,0.358 H 2.498 V 5.829 H 5.842 V 7.766 H 0 Z M 10.308,7.935 Q 9.112,7.935 8.16,7.438 7.207,6.94 6.667,6.062 q -0.54,-0.889 -0.54,-2 0,-1.111 0.54,-1.99 0.54,-0.889 1.493,-1.386 0.952,-0.498 2.148,-0.498 1.196,0 2.149,0.498 0.952,0.497 1.492,1.386 0.54,0.879 0.54,1.99 0,1.111 -0.54,2 -0.54,0.878 -1.492,1.376 -0.953,0.497 -2.149,0.497 z m 0,-2.021 q 0.466,0 0.836,-0.222 Q 11.525,5.459 11.747,5.046 11.97,4.623 11.97,4.062 11.97,3.501 11.747,3.088 11.525,2.665 11.144,2.443 10.774,2.21 10.308,2.21 9.842,2.21 9.461,2.443 9.091,2.665 8.869,3.088 8.647,3.501 8.647,4.062 q 0,0.56 0.222,0.984 0.222,0.413 0.592,0.646 0.381,0.222 0.847,0.222 z M 20.299,3.86 h 2.17 v 3.133 q -0.657,0.455 -1.525,0.699 -0.867,0.243 -1.704,0.243 -1.185,0 -2.127,-0.487 -0.942,-0.497 -1.481,-1.375 -0.53,-0.89 -0.53,-2.011 0,-1.122 0.53,-2 0.54,-0.89 1.492,-1.376 0.963,-0.498 2.17,-0.498 1.09,0 1.947,0.37 0.868,0.36 1.44,1.06 L 21.082,3.025 Q 20.383,2.21 19.42,2.21 q -0.825,0 -1.312,0.497 -0.487,0.498 -0.487,1.355 0,0.836 0.476,1.344 0.487,0.508 1.292,0.508 0.476,0 0.91,-0.18 z m 7.122,4.075 q -1.196,0 -2.148,-0.497 -0.953,-0.498 -1.492,-1.376 -0.54,-0.889 -0.54,-2 0,-1.111 0.54,-1.99 0.54,-0.889 1.492,-1.386 0.952,-0.498 2.148,-0.498 1.196,0 2.149,0.498 0.952,0.497 1.492,1.386 0.54,0.879 0.54,1.99 0,1.111 -0.54,2 -0.54,0.878 -1.492,1.376 -0.953,0.497 -2.149,0.497 z m 0,-2.021 q 0.466,0 0.836,-0.222 0.381,-0.233 0.604,-0.646 0.222,-0.423 0.222,-0.984 0,-0.561 -0.222,-0.974 Q 28.638,2.665 28.257,2.443 27.887,2.21 27.421,2.21 q -0.465,0 -0.846,0.233 -0.37,0.222 -0.593,0.645 -0.222,0.413 -0.222,0.974 0,0.56 0.222,0.984 0.222,0.413 0.593,0.646 0.38,0.222 0.846,0.222 z"
       style="line-height:1;-inkscape-font-specification:Montserrat;fill:#1a1a1a"
       aria-label="LOGO"
       font-weight="400"
       font-size="10.583px"
       font-family="Montserrat"
       letter-spacing="0"
       word-spacing="0"
       stroke-width="0.265"
       fill="#0a1128"
       id="path2" />
  </g>
</svg>
